<svg xmlns="http://www.w3.org/2000/svg" xmlns:xlink="http://www.w3.org/1999/xlink" width="400" zoomAndPan="magnify" viewBox="0 0 300 66.75" height="89" preserveAspectRatio="xMidYMid meet" version="1.0"><defs><g/><clipPath id="539e4c7923"><path d="M 0.558594 0 L 50 0 L 50 66 L 0.558594 66 Z M 0.558594 0 " clip-rule="nonzero"/></clipPath><clipPath id="cef33396d6"><path d="M 114 0 L 169 0 L 169 66.5 L 114 66.5 Z M 114 0 " clip-rule="nonzero"/></clipPath><clipPath id="0791c2135b"><path d="M 237 0 L 299.4375 0 L 299.4375 66 L 237 66 Z M 237 0 " clip-rule="nonzero"/></clipPath></defs><g clip-path="url(#539e4c7923)"><g fill="#ffffff" fill-opacity="1"><g transform="translate(-7.728018, 65.516888)"><g><path d="M 8.3125 -66 L 28.84375 -66 C 38.207031 -66 45.003906 -64.664062 49.234375 -62 C 53.460938 -59.34375 55.578125 -55.109375 55.578125 -49.296875 C 55.578125 -45.347656 54.648438 -42.109375 52.796875 -39.578125 C 50.941406 -37.054688 48.476562 -35.539062 45.40625 -35.03125 L 45.40625 -34.578125 C 49.59375 -33.648438 52.609375 -31.90625 54.453125 -29.34375 C 56.304688 -26.78125 57.234375 -23.378906 57.234375 -19.140625 C 57.234375 -13.117188 55.054688 -8.421875 50.703125 -5.046875 C 46.359375 -1.679688 40.457031 0 33 0 L 8.3125 0 Z M 22.296875 -39.859375 L 30.421875 -39.859375 C 34.210938 -39.859375 36.957031 -40.441406 38.65625 -41.609375 C 40.363281 -42.785156 41.21875 -44.734375 41.21875 -47.453125 C 41.21875 -49.972656 40.289062 -51.78125 38.4375 -52.875 C 36.582031 -53.976562 33.65625 -54.53125 29.65625 -54.53125 L 22.296875 -54.53125 Z M 22.296875 -28.75 L 22.296875 -11.5625 L 31.421875 -11.5625 C 35.273438 -11.5625 38.117188 -12.296875 39.953125 -13.765625 C 41.785156 -15.242188 42.703125 -17.503906 42.703125 -20.546875 C 42.703125 -26.015625 38.789062 -28.75 30.96875 -28.75 Z M 22.296875 -28.75 "/></g></g></g></g><g fill="#ffffff" fill-opacity="1"><g transform="translate(54.382009, 65.516888)"><g><path d="M 8.3125 0 L 8.3125 -66 L 22.296875 -66 L 22.296875 -11.5625 L 49.078125 -11.5625 L 49.078125 0 Z M 8.3125 0 "/></g></g></g><g clip-path="url(#cef33396d6)"><g fill="#ffffff" fill-opacity="1"><g transform="translate(106.606792, 65.516888)"><g><path d="M 62.03125 -66 L 62.03125 -23.296875 C 62.03125 -18.421875 60.9375 -14.144531 58.75 -10.46875 C 56.570312 -6.800781 53.421875 -3.988281 49.296875 -2.03125 C 45.171875 -0.0703125 40.296875 0.90625 34.671875 0.90625 C 26.179688 0.90625 19.585938 -1.265625 14.890625 -5.609375 C 10.203125 -9.960938 7.859375 -15.914062 7.859375 -23.46875 L 7.859375 -66 L 21.796875 -66 L 21.796875 -25.59375 C 21.796875 -20.507812 22.816406 -16.773438 24.859375 -14.390625 C 26.910156 -12.015625 30.300781 -10.828125 35.03125 -10.828125 C 39.601562 -10.828125 42.921875 -12.023438 44.984375 -14.421875 C 47.046875 -16.816406 48.078125 -20.570312 48.078125 -25.6875 L 48.078125 -66 Z M 62.03125 -66 "/></g></g></g></g><g fill="#ffffff" fill-opacity="1"><g transform="translate(176.480572, 65.516888)"><g><path d="M 22.296875 -36.703125 L 26.8125 -36.703125 C 31.238281 -36.703125 34.503906 -37.4375 36.609375 -38.90625 C 38.710938 -40.382812 39.765625 -42.703125 39.765625 -45.859375 C 39.765625 -48.992188 38.6875 -51.222656 36.53125 -52.546875 C 34.382812 -53.867188 31.054688 -54.53125 26.546875 -54.53125 L 22.296875 -54.53125 Z M 22.296875 -25.328125 L 22.296875 0 L 8.3125 0 L 8.3125 -66 L 27.53125 -66 C 36.5 -66 43.132812 -64.363281 47.4375 -61.09375 C 51.75 -57.832031 53.90625 -52.878906 53.90625 -46.234375 C 53.90625 -42.347656 52.832031 -38.890625 50.6875 -35.859375 C 48.550781 -32.835938 45.53125 -30.46875 41.625 -28.75 C 51.550781 -13.914062 58.019531 -4.332031 61.03125 0 L 45.5 0 L 29.75 -25.328125 Z M 22.296875 -25.328125 "/></g></g></g><g clip-path="url(#0791c2135b)"><g fill="#3500d5" fill-opacity="1"><g transform="translate(237.517512, 65.516888)"><g><path d="M 61.671875 0 L 45.6875 0 L 30.34375 -24.96875 L 14.984375 0 L 0 0 L 21.890625 -34.03125 L 1.40625 -66 L 16.84375 -66 L 31.0625 -42.25 L 45 -66 L 60.078125 -66 L 39.359375 -33.265625 Z M 61.671875 0 "/></g></g></g></g></svg>